# xmcd
#
# Track frame offsets: 
#        150
#        11555
#        23813
#        38140
#        52383
#        65760
#        78218
#        91678
#        103870
#        115285
#
# Disc length: 1739 seconds
#
# Revision: 3
# Processed by: cddbd v1.5.2PL0 Copyright (c) Steve Scherf et al.
# Submitted via: ExactAudioCopyFreeDBPlugin 1.0
#
DISCID=7e06c90a
DTITLE=Janie Frickie - Saddle The Wind
DYEAR=1988
DGENRE=Country
TTITLE0=Sugar Moon
TTITLE1=I'll Walk Before I'll Crawl
TTITLE2=Heart
TTITLE3=I'm Not That Good At Goodbye
TTITLE4=Don't Touch Me
TTITLE5=Where Does Love Go (When It's Gone)
TTITLE6=If I Were Only Her Tonight
TTITLE7=The Healing Hands Of Time
TTITLE8=Crazy Dreams
TTITLE9=Saddle The Wind
EXTD=
EXTT0=
EXTT1=
EXTT2=
EXTT3=
EXTT4=
EXTT5=
EXTT6=
EXTT7=
EXTT8=
EXTT9=
PLAYORDER=
